<svg width="34" height="34" viewBox="0 0 34 34" fill="none" xmlns="http://www.w3.org/2000/svg">
<rect x="1" y="1" width="32" height="32" rx="16" stroke="#252E36" stroke-width="2"/>
<circle cx="17" cy="17" r="14" fill="#F9F9F9"/>
<path d="M31 17C31 15.1615 30.6379 13.341 29.9343 11.6424C29.2307 9.94387 28.1995 8.40053 26.8995 7.1005C25.5995 5.80048 24.0561 4.76925 22.3576 4.06569C20.659 3.36212 18.8385 3 17 3C15.1615 3 13.341 3.36212 11.6424 4.06569C9.94387 4.76925 8.40052 5.80049 7.1005 7.10051C5.80048 8.40053 4.76925 9.94387 4.06569 11.6424C3.36212 13.341 3 15.1615 3 17L17 17H31Z" fill="#E3E4E4"/>
</svg>
