<svg width="34" height="34" viewBox="0 0 34 34" fill="none" xmlns="http://www.w3.org/2000/svg">
<circle cx="17" cy="17" r="14" transform="rotate(-180 17 17)" fill="#F9F9F9"/>
<path d="M3 17C3 18.8385 3.36212 20.659 4.06569 22.3576C4.76925 24.0561 5.80049 25.5995 7.10051 26.8995C8.40053 28.1995 9.94387 29.2307 11.6424 29.9343C13.341 30.6379 15.1615 31 17 31C18.8385 31 20.659 30.6379 22.3576 29.9343C24.0561 29.2307 25.5995 28.1995 26.8995 26.8995C28.1995 25.5995 29.2307 24.0561 29.9343 22.3576C30.6379 20.659 31 18.8385 31 17L17 17L3 17Z" fill="#E3E4E4"/>
</svg>
