<svg width="28" height="28" viewBox="0 0 28 28" fill="none" xmlns="http://www.w3.org/2000/svg">
<circle cx="14" cy="14" r="14" fill="#FF731D"/>
<path d="M28 14C28 12.1615 27.6379 10.341 26.9343 8.64243C26.2307 6.94387 25.1995 5.40053 23.8995 4.1005C22.5995 2.80048 21.0561 1.76925 19.3576 1.06569C17.659 0.362121 15.8385 -8.03637e-08 14 0C12.1615 8.03637e-08 10.341 0.362121 8.64243 1.06569C6.94387 1.76925 5.40052 2.80049 4.1005 4.10051C2.80048 5.40053 1.76925 6.94387 1.06569 8.64243C0.36212 10.341 -1.60727e-07 12.1615 0 14L14 14H28Z" fill="#F9A526"/>
</svg>
